<!DOCTYPE svg PUBLIC "-//W3C//DTD SVG 1.1//EN" "http://www.w3.org/Graphics/SVG/1.1/DTD/svg11.dtd">
<!-- Uploaded to: SVG Repo, www.svgrepo.com, Transformed by: SVG Repo Mixer Tools -->
<svg fill="#ffffff" version="1.1" id="Capa_1" xmlns="http://www.w3.org/2000/svg" xmlns:xlink="http://www.w3.org/1999/xlink" width="800px" height="800px" viewBox="0 0 123.946 123.946" xml:space="preserve" stroke="#ffffff">
<g id="SVGRepo_bgCarrier" stroke-width="0"/>
<g id="SVGRepo_tracerCarrier" stroke-linecap="round" stroke-linejoin="round"/>
<g id="SVGRepo_iconCarrier"> <g> <g> <path d="M100.998,42.88H90.524c-0.162-1.118-0.741-2.172-1.73-2.889c-1.958-1.421-4.695-0.985-6.117,0.974l-0.521,0.722 l-4.914-8.216c-0.519-0.867-1.295-1.472-2.168-1.813v-0.049l-5.913-2.629l-2.422-2.195l-4.802,4.387l-4.693-4.425l-2.742,2.311 l-5.701,2.552v0.075c-0.843,0.347-1.59,0.944-2.094,1.787l-4.914,8.216l-0.521-0.722c-1.42-1.958-4.157-2.395-6.117-0.974 c-0.988,0.717-1.58,1.771-1.747,2.889h-10.46v59.782h25.153c-0.021,0.224-0.033,0.448-0.033,0.677l0.004,13.836 c0.001,3.739,3.033,6.771,6.772,6.771c0.002,0,0.002,0,0.002,0c3.741-0.001,6.772-3.034,6.771-6.774l-0.004-13.836 c0-0.229-0.012-0.451-0.033-0.673h1.033c-0.021,0.222-0.034,0.446-0.034,0.675l-0.002,13.834c0,3.741,3.031,6.773,6.771,6.774 c0.002,0,0.002,0,0.002,0c3.74,0,6.771-3.032,6.771-6.772l0.003-13.834c0-0.229-0.013-0.453-0.034-0.677h24.906L100.998,42.88 L100.998,42.88z M61.903,32.085h0.066l1.616,10.795h-3.298L61.903,32.085z M94.869,96.533H29.077V49.012h65.791L94.869,96.533 L94.869,96.533z"/> <circle cx="62.033" cy="13.373" r="13.373"/> <rect x="33.08" y="52.695" width="10.748" height="1.896"/> <rect x="33.08" y="56.488" width="6.094" height="1.898"/> <path d="M76.99,76.739c-0.651,0-1.271-0.313-1.654-0.843c-0.157-0.221-0.271-0.463-0.333-0.721 c-0.128-0.533-0.035-1.099,0.248-1.559l1.324-2.16l-3.613-1.992c-0.003,0.021-0.006,0.045-0.006,0.068v20.012 c0,0.365,0.296,0.662,0.661,0.662h8.978c0.364,0,0.66-0.297,0.66-0.662V75.292l-5.785,1.392 C77.313,76.721,77.152,76.739,76.99,76.739z"/> <path d="M56.916,67.7v21.847c0,0.364,0.296,0.661,0.661,0.661h8.977c0.366,0,0.662-0.297,0.662-0.661v-23.25l-5.076-2.8 L56.916,67.7z"/> <path d="M47.567,73.016l-5.807-3.024v19.556c0,0.364,0.296,0.661,0.662,0.661h8.977c0.365,0,0.663-0.297,0.663-0.661V71.605 l-1.372,1.104C49.822,73.405,48.552,73.529,47.567,73.016z"/> <path d="M37.854,61.836c-0.338,0.648-0.087,1.447,0.562,1.785l11.582,6.037c0.467,0.242,1.032,0.188,1.443-0.143l12.256-9.86 l16.758,9.241l-2.172,3.547c-0.071,0.115-0.091,0.252-0.062,0.379c0.016,0.062,0.043,0.122,0.082,0.178 c0.119,0.163,0.325,0.239,0.522,0.191l7.537-1.809c0.271-0.066,0.435-0.336,0.37-0.604l-1.811-7.538 c-0.048-0.197-0.209-0.346-0.41-0.377c-0.199-0.031-0.397,0.061-0.506,0.232l-2.168,3.541l-17.642-9.729 c-0.472-0.261-1.052-0.209-1.47,0.127L50.453,66.91L39.64,61.273C38.994,60.935,38.192,61.188,37.854,61.836z"/> </g> </g> </g>
</svg>